<svg xmlns="http://www.w3.org/2000/svg" viewBox="-163 346.6 283.4 100.4" enable-background="new -163 346.6 283.4 100.4"><style type="text/css">.st0{fill:#FFFFFF;} .st1{fill:#058AC4;}</style><g><path class="st0" d="M-76.8 386.2v24.4c0 14.5 0 23.2-3.1 26.3-3.1 3.1-11.3 3.1-26.2 3.1h-20.6c-14.9 0-23.1 0-26.2-3.1-3.1-3.1-3.1-11.8-3.1-26.3v-20.5c0-14.5 0-23.2 3.1-26.3 3.1-3.1 11.3-3.1 26.2-3.1h24.4v-7h-24.4c-34.7 0-36.4 1.7-36.4 36.4v20.5c0 34.7 1.7 36.4 36.4 36.4h20.6c34.7 0 36.4-1.7 36.4-36.4v-24.4h-7.1z"/><path class="st1" d="M-63.4 346.6h-31.9v7.1h25.6v25.5h7v-32.6z"/><path class="st0" d="M-49.9 363.3c0-2.4.2-4.1.5-5.3 1-3.1 3.6-4.7 7-4.7s6 1.6 7 4.7c.4 1.1.5 2.9.5 5.3s-.2 4.1-.5 5.3c-1 3.1-3.6 4.7-7 4.7s-6-1.6-7-4.7c-.4-1.2-.5-3-.5-5.3zm10.8 0c0-2.1-.1-3.5-.3-4.1-.5-1.4-1.5-2.1-3-2.1-1.6 0-2.6.7-3 2.1-.2.6-.3 2-.3 4.1 0 2.1.1 3.5.3 4.1.5 1.4 1.5 2.1 3 2.1 1.6 0 2.6-.7 3-2.1.2-.6.3-2 .3-4.1z"/><path class="st0" d="M-27.3 372.9c-.2 0-.3-.1-.3-.3v-15.1c0-.1-.1-.2-.2-.2h-4.9c-.2 0-.3-.1-.3-.3v-3c0-.2.1-.3.3-.3h14.2c.2 0 .3.1.3.3v3.1c0 .2-.1.3-.3.3h-4.9c-.1 0-.2.1-.2.2v15c0 .2-.1.3-.3.3h-3.4z"/><path class="st0" d="M-14.8 372.9c-.2 0-.3-.1-.3-.3v-18.6c0-.2.1-.3.3-.3h3.6c.2 0 .3.1.3.3v7.2c0 .1.1.2.2.2h1.4c1.1 0 1.8-.6 2.3-1.7l1.2-3c.9-2.3 2.1-3.1 4.4-3.1h1.2c.2 0 .3.1.3.3v3.1c0 .2-.1.3-.3.3h-.3c-1 0-1.4.3-1.9 1.3l-.9 2.3c-.4 1.1-.9 1.8-1.6 2v.1c.8.3 1.5.9 1.9 2l1.2 3.1c.4 1 .8 1.3 1.8 1.3h.3c.2 0 .3.1.3.3v3.2c0 .2-.1.3-.3.3h-1.4c-2.3 0-3.6-.8-4.5-3.1l-1.2-3.2c-.4-1.2-1.2-1.7-2.5-1.7h-1.3c-.1 0-.2.1-.2.2v7.2c0 .2-.1.3-.3.3h-3.7z"/><path class="st0" d="M4.1 372.9c-.2 0-.3-.1-.3-.3v-18.6c0-.2.1-.3.3-.3h7.5c2.1 0 3.7.6 4.9 1.7 1.2 1.1 1.8 2.6 1.8 4.5 0 1.8-.6 3.3-1.8 4.5-1.2 1.1-2.8 1.7-4.9 1.7h-3.4c-.1 0-.2.1-.2.2v6.3c0 .2-.1.3-.3.3h-3.6zm7.2-10.5c1.7 0 2.8-1 2.8-2.6s-1.1-2.6-2.8-2.6h-3.2c-.1 0-.2.1-.2.2v4.8c0 .1.1.2.2.2h3.2z"/><path class="st0" d="M21.9 372.9c-.2 0-.3-.1-.3-.3v-18.6c0-.2.1-.3.3-.3h3.6c.2 0 .3.1.3.3v6.4c0 .1.1.2.2.2h3.4c4.3 0 6.8 2.4 6.8 6.1 0 3.7-2.5 6.2-6.8 6.2h-7.5zm7.2-3.6c1.8 0 2.9-.9 2.9-2.6 0-1.6-1-2.6-2.9-2.6h-3.2c-.1 0-.2.1-.2.2v4.8c0 .1.1.2.2.2h3.2zm9.4 3.6c-.2 0-.3-.1-.3-.3v-18.6c0-.2.1-.3.3-.3h3.6c.2 0 .3.1.3.3v18.6c0 .2-.1.3-.3.3h-3.6z"/><path class="st0" d="M51 372.9c-.2 0-.3-.1-.3-.3v-15.1c0-.1-.1-.2-.2-.2h-4.9c-.2 0-.3-.1-.3-.3v-3c0-.2.1-.3.3-.3h14.2c.2 0 .3.1.3.3v3.1c0 .2-.1.3-.3.3h-4.9c-.1 0-.2.1-.2.2v15c0 .2-.1.3-.3.3h-3.4z"/><path class="st0" d="M66.8 354c.1-.2.2-.3.4-.3h3.6c.2 0 .3.1.4.3l6.5 18.6c.1.2 0 .3-.2.3h-3.7c-.2 0-.3-.1-.4-.3l-1.1-3.4h-6.7l-1.1 3.4c-.1.2-.2.3-.4.3h-3.7c-.2 0-.3-.1-.2-.3l6.6-18.6zm-.1 11.7h4.4l-2.2-6.7h-.1l-2.1 6.7z"/><path class="st0" d="M79.7 373c-.2 0-.3-.1-.3-.3v-3.2c0-.2.1-.3.3-.3h.4c.8 0 1.4-.4 1.7-1.1l.8-1.9c.3-.7.7-1.3 1.3-1.6-2.3-.5-3.9-2.2-3.9-5.1 0-1.7.6-3 1.7-4.1 1.2-1.1 2.7-1.7 4.6-1.7h7.9c.2 0 .3.1.3.3v18.6c0 .2-.1.3-.3.3h-3.6c-.2 0-.3-.1-.3-.3v-6.7c0-.1-.1-.2-.2-.2h-1.4c-1.1 0-1.7.2-2.2 1.5l-1.1 2.7c-.9 2.3-2.2 3.1-4.5 3.1h-1.2zm10.4-10.8c.1 0 .2-.1.2-.2v-4.6c0-.1-.1-.2-.2-.2h-3.4c-1.6 0-2.6.8-2.6 2.5 0 1.6 1 2.5 2.6 2.5h3.4z"/><path class="st0" d="M-49.1 398.3c-.2 0-.3-.1-.3-.3v-18.6c0-.2.1-.3.3-.3h3.4c.2 0 .4.1.5.3l4.9 11h.1l4.8-11c.1-.2.2-.3.5-.3h3.3c.2 0 .3.1.3.3v18.6c0 .2-.1.3-.3.3h-3.4c-.2 0-.3-.1-.3-.3v-10.8h-.1l-3.6 8.1c-.1.3-.3.4-.5.4h-1.9c-.3 0-.4-.1-.5-.4l-3.6-8.1h-.1v10.8c0 .2-.1.3-.3.3h-3.2z"/><path class="st0" d="M-27.7 388.7c0-2.4.2-4.1.5-5.3 1-3.1 3.6-4.7 7-4.7s6 1.6 7 4.7c.4 1.1.5 2.9.5 5.3s-.2 4.1-.5 5.3c-1 3.1-3.6 4.7-7 4.7s-6-1.6-7-4.7c-.3-1.2-.5-2.9-.5-5.3zm10.9 0c0-2.1-.1-3.5-.3-4.1-.5-1.4-1.5-2.1-3-2.1-1.6 0-2.6.7-3 2.1-.2.6-.3 2-.3 4.1 0 2.1.1 3.5.3 4.1.5 1.4 1.5 2.1 3 2.1 1.6 0 2.6-.7 3-2.1.2-.6.3-2 .3-4.1z"/><path class="st0" d="M-8.5 398.3c-.2 0-.3-.1-.3-.3v-18.6c0-.2.1-.3.3-.3h12.6c.2 0 .3.1.3.3v3.1c0 .2-.1.3-.3.3h-8.5c-.1 0-.2.1-.2.2v3.4c0 .1.1.2.2.2h3.8c1.9 0 3.4.5 4.5 1.6s1.7 2.5 1.7 4.3-.6 3.2-1.7 4.3c-1.1 1.1-2.7 1.6-4.5 1.6l-7.9-.1zm7.5-3.5c1.6 0 2.5-.9 2.5-2.4s-.9-2.4-2.5-2.4h-3.4c-.1 0-.2.1-.2.2v4.4c0 .1.1.2.2.2h3.4z"/><path class="st0" d="M9.5 398.3c-.2 0-.3-.1-.3-.3v-18.6c0-.2.1-.3.3-.3h3.6c.2 0 .3.1.3.3v11.8h.1l7-11.8c.1-.1.2-.2.4-.2h3.3c.2 0 .3.1.3.3v18.7c0 .2-.1.3-.3.3h-3.6c-.2 0-.3-.1-.3-.3v-12h-.1l-7 11.9c-.1.1-.2.2-.4.2h-3.3z"/><path class="st0" d="M27.6 398.4c-.2 0-.3-.1-.3-.3v-3.2c0-.2.1-.3.3-.3h.4c1 0 1.8-.5 2.3-1.4.6-.9.8-2.7.8-5.2v-8.8c0-.2.1-.3.3-.3h12.6c.2 0 .3.1.3.3v18.7c0 .2-.1.3-.2.3h-3.7c-.2 0-.3-.1-.3-.3v-14.9c0-.1-.1-.2-.2-.2h-4.6c-.1 0-.2.1-.2.2v5.5c0 3.6-.5 6.2-1.6 7.7-1 1.5-2.6 2.3-4.7 2.3h-1.2v-.1z"/><path class="st0" d="M48.9 398.3c-.2 0-.3-.1-.3-.3v-18.6c0-.2.1-.3.3-.3h3.6c.2 0 .3.1.3.3v6.4c0 .1.1.2.2.2h3.4c4.3 0 6.8 2.4 6.8 6.1 0 3.7-2.5 6.2-6.8 6.2h-7.5zm7.2-3.6c1.8 0 2.9-1 2.9-2.7 0-1.6-1-2.5-2.9-2.5h-3.2c-.1 0-.2.1-.2.2v4.8c0 .1.1.2.2.2h3.2z"/><path class="st0" d="M66.9 398.3c-.2 0-.3-.1-.3-.3v-18.6c0-.2.1-.3.3-.3h3.6c.2 0 .3.1.3.3v7.2c0 .1.1.2.2.2h6.3c.1 0 .2-.1.2-.2v-7.2c0-.2.1-.3.3-.3h3.6c.2 0 .3.1.3.3v18.6c0 .2-.1.3-.3.3h-3.6c-.2 0-.3-.1-.3-.3v-7.4c0-.1-.1-.2-.2-.2h-6.3c-.1 0-.2.1-.2.2v7.4c0 .2-.1.3-.3.3h-3.6z"/><path class="st0" d="M91.1 379.4c.1-.2.2-.3.4-.3h3.6c.2 0 .3.1.4.3l6.5 18.6c.1.2 0 .3-.2.3h-3.8c-.2 0-.3-.1-.4-.3l-1.1-3.4h-6.7l-1.1 3.4c-.1.2-.2.3-.4.3h-3.7c-.2 0-.3-.1-.2-.3l6.7-18.6zm-.1 11.7h4.4l-2.2-6.7h-.1l-2.1 6.7z"/><path class="st0" d="M104 398.4c-.2 0-.3-.1-.3-.3v-3.2c0-.2.1-.3.3-.3h.4c.8 0 1.4-.4 1.7-1.1l.8-1.9c.3-.7.7-1.3 1.3-1.6v-.1c-2.3-.5-3.9-2.2-3.9-5.1 0-1.7.6-3 1.7-4.1 1.2-1.1 2.7-1.7 4.6-1.7h7.9c.2 0 .3.1.3.3v18.7c0 .2-.1.3-.3.3h-3.6c-.2 0-.3-.1-.3-.3v-6.7c0-.1-.1-.2-.2-.2h-1.4c-1.1 0-1.7.2-2.2 1.5l-1.1 2.7c-.9 2.3-2.2 3.1-4.5 3.1h-1.2zm10.5-10.8c.1 0 .2-.1.2-.2v-4.6c0-.1-.1-.2-.2-.2h-3.5c-1.6 0-2.6.8-2.6 2.5 0 1.6 1 2.5 2.6 2.5h3.5z"/><path class="st0" d="M-49.2 423.7c-.2 0-.3-.1-.3-.3v-18.6c0-.2.1-.3.3-.3h14.2c.2 0 .3.1.3.3v18.7c0 .2-.1.3-.3.3h-3.6c-.2 0-.3-.1-.3-.3v-15.1c0-.1-.1-.2-.2-.2h-6c-.1 0-.2.1-.2.2v15.1c0 .2-.1.3-.3.3h-3.6v-.1z"/><path class="st0" d="M-31.6 423.8c-.2 0-.3-.1-.3-.3v-3.2c0-.2.1-.3.3-.3h.4c1 0 1.8-.5 2.3-1.4.6-.9.8-2.7.8-5.2v-8.8c0-.2.1-.3.3-.3h12.6c.2 0 .3.1.3.3v18.7c0 .2-.1.3-.2.3h-3.7c-.2 0-.3-.1-.3-.3v-14.9c0-.1-.1-.2-.2-.2h-4.6c-.1 0-.2.1-.2.2v5.5c0 3.6-.5 6.2-1.6 7.7-1 1.5-2.6 2.3-4.7 2.3h-1.2v-.1z"/><path class="st0" d="M-5.3 404.8c.1-.2.2-.3.4-.3h3.6c.2 0 .3.1.4.3l6.5 18.6c.1.2 0 .3-.2.3h-3.7c-.2 0-.3-.1-.4-.3l-1.1-3.4h-6.7l-1.1 3.4c-.1.2-.2.3-.4.3h-3.7c-.2 0-.3-.1-.2-.3l6.6-18.6zm-.1 11.8h4.4l-2.2-6.7h-.1l-2.1 6.7z"/><path class="st0" d="M10.9 423.7c-.2 0-.3-.1-.3-.3v-15c0-.1-.1-.2-.2-.2h-4.9c-.2 0-.3-.1-.3-.3v-3.1c0-.2.1-.3.3-.3h14.2c.2 0 .3.1.3.3v3.1c0 .2-.1.3-.3.3h-4.9c-.1 0-.2.1-.2.2v15.1c0 .2-.1.3-.3.3h-3.4v-.1z"/><path class="st0" d="M30.1 424c-.2 0-.3-.1-.3-.3v-2.1c0-.1-.1-.2-.2-.2-5.6-.3-8.2-2.9-8.2-7.8 0-4.7 2.7-7.2 8.2-7.5.1 0 .2-.1.2-.2v-1.6c0-.2.1-.3.3-.3h3.6c.2 0 .3.1.3.3v1.6c0 .1.1.2.2.2 5.4.3 8.2 2.8 8.2 7.5 0 4.9-2.5 7.5-8.2 7.8-.1 0-.2.1-.2.2v2.1c0 .2-.1.3-.3.3h-3.6zm-.2-6.2v-7.8c0-.1-.1-.1-.2-.1-2.7.1-4 1.3-4 4.1 0 2.6 1.3 3.9 4 4.1l.2-.3zm8.3-3.9c0-2.8-1.3-4-4-4.1-.1 0-.2.1-.2.1v7.8c0 .1.1.2.2.2 2.8-.2 4-1.4 4-4z"/><path class="st0" d="M45.3 414.1c0-2.4.2-4.1.5-5.3 1-3.1 3.6-4.7 7-4.7s6 1.6 7 4.7c.4 1.1.5 2.9.5 5.3s-.2 4.1-.5 5.3c-1 3.1-3.6 4.7-7 4.7s-6-1.6-7-4.7c-.3-1.2-.5-2.9-.5-5.3zm10.9 0c0-2.1-.1-3.5-.3-4.1-.5-1.4-1.5-2.1-3-2.1-1.6 0-2.6.7-3 2.1-.2.6-.3 2-.3 4.1s.1 3.5.3 4.1c.5 1.4 1.5 2.1 3 2.1 1.6 0 2.6-.7 3-2.1.2-.6.3-2 .3-4.1z"/><path class="st0" d="M64.5 423.7c-.2 0-.3-.1-.3-.3v-18.6c0-.2.1-.3.3-.3h7.5c2.1 0 3.7.6 4.9 1.7s1.8 2.6 1.8 4.5c0 1.8-.6 3.3-1.8 4.5-1.2 1.1-2.8 1.7-4.9 1.7h-3.4c-.1 0-.2.1-.2.2v6.4c0 .2-.1.3-.3.3h-3.6v-.1zm7.2-10.4c1.7 0 2.8-1 2.8-2.6s-1.1-2.6-2.8-2.6h-3.2c-.1 0-.2.1-.2.2v4.8c0 .1.1.2.2.2h3.2z"/><path class="st0" d="M82.3 423.7c-.2 0-.3-.1-.3-.3v-18.6c0-.2.1-.3.3-.3h3.4c.2 0 .4.1.5.3l4.9 11h.1l4.8-11c.1-.2.2-.3.5-.3h3.3c.2 0 .3.1.3.3v18.6c0 .2-.1.3-.3.3h-3.2c-.2 0-.3-.1-.3-.3v-10.8h-.1l-3.6 8.1c-.1.3-.3.4-.5.4h-2.1c-.3 0-.4-.1-.5-.4l-3.6-8.1h-.1v10.8c0 .2-.1.3-.3.3h-3.2z"/><path class="st0" d="M109.6 404.8c.1-.2.2-.3.4-.3h3.6c.2 0 .3.1.4.3l6.5 18.6c.1.2 0 .3-.2.3h-3.7c-.2 0-.3-.1-.4-.3l-1.1-3.4h-6.7l-1.1 3.4c-.1.2-.2.3-.4.3h-3.7c-.2 0-.3-.1-.2-.3l6.6-18.6zm-.1 11.8h4.4l-2.2-6.7h-.1l-2.1 6.7z"/></g></svg>